<svg fill="none" height="17" viewBox="0 0 16 17" width="16" xmlns="http://www.w3.org/2000/svg"><path d="m4.02656 12.25c.03125 0 .0625-.0031.09375-.0078l2.62813-.461c.03125-.0062.06094-.0203.08281-.0437l6.62345-6.62344c.0145-.01445.026-.03162.0338-.05052.0078-.01891.0119-.03917.0119-.05963 0-.02047-.0041-.04073-.0119-.05963s-.0193-.03607-.0338-.05053l-2.5969-2.59844c-.0297-.02968-.0687-.04531-.1109-.04531s-.0813.01563-.111.04531l-6.6234 6.62344c-.02344.02344-.0375.05156-.04375.08281l-.46094 2.62814c-.0152.0837-.00977.1698.01583.251.02559.0811.07057.1548.13105.2146.10312.1.23281.1547.37187.1547zm1.05313-2.725 5.66721-5.66562 1.1453 1.14531-5.6672 5.66561-1.38906.2453zm8.67031 4.0375h-11.5c-.27656 0-.5.2234-.5.5v.5625c0 .0688.05625.125.125.125h12.25c.0688 0 .125-.0562.125-.125v-.5625c0-.2766-.2234-.5-.5-.5z" fill="#8c94a0"/></svg>