<svg fill="none" height="90" viewBox="0 0 90 90" width="90" xmlns="http://www.w3.org/2000/svg"><path d="m0 2c0-1.10457.895431-2 2-2h86c1.1046 0 2 .895431 2 2v86c0 1.1046-.8954 2-2 2h-86c-1.10457 0-2-.8954-2-2z" fill="#fff"/><g fill="#d0d7dd"><path d="m20.8063 18.0001h-1.5211l-2.9613-4.8577v4.8577h-1.5212v-7.3828h1.5212l2.9663 4.8678v-4.8678h1.5161z"/><path d="m28.1993 14.476c0 .7268-.1285 1.364-.3854 1.9116-.2569.5477-.6253.9702-1.1054 1.2677-.4766.2975-1.0242.4462-1.6428.4462-.6119 0-1.1578-.147-1.6379-.4411-.48-.2941-.8518-.7133-1.1155-1.2575-.2637-.5477-.3972-1.1764-.4006-1.8863v-.3651c0-.7268.1302-1.3657.3905-1.9167.2636-.5544.6338-.9786 1.1104-1.2727.4801-.2975 1.0277-.4462 1.6429-.4462s1.1612.1487 1.6378.4462c.48.2941.8502.7183 1.1105 1.2727.2637.551.3955 1.1882.3955 1.9116zm-1.5415-.3346c0-.7742-.1386-1.3623-.4158-1.7646s-.6727-.6034-1.1865-.6034c-.5104 0-.9042.1994-1.1814.5983-.2772.3955-.4175.977-.4209 1.7443v.36c0 .7538.1386 1.3387.4158 1.7545.2772.4157.6761.6236 1.1967.6236.5104 0 .9025-.1994 1.1763-.5983.2739-.4023.4124-.9871.4158-1.7544z"/><path d="m33.4119 15.3989v2.6012h-1.5212v-7.3828h2.8801c.5544 0 1.0412.1014 1.4603.3042.4226.2028.7471.4919.9736.8671.2265.3718.3397.7961.3397 1.2727 0 .7234-.2484 1.2947-.7453 1.7139-.4936.4158-1.1781.6237-2.0536.6237zm0-1.2322h1.3589c.4023 0 .7082-.0946.9178-.2839.213-.1893.3194-.4598.3194-.8113 0-.3617-.1064-.6542-.3194-.8773s-.5071-.338-.8823-.3448h-1.3944z"/><path d="m41.3271 15.2975h-1.2119v2.7026h-1.5211v-7.3828h2.7432c.8721 0 1.5448.1944 2.0181.5831.4732.3887.7098.9381.7098 1.648 0 .5036-.1098.9245-.3295 1.2625-.2164.3347-.546.6017-.9888.8012l1.5972 3.017v.071h-1.6327zm-1.2119-1.2322h1.2271c.382 0 .6778-.0963.8874-.289.2096-.1961.3144-.4648.3144-.8063 0-.3481-.0998-.6219-.2992-.8214-.1961-.1994-.4986-.2992-.9076-.2992h-1.2221z"/><path d="m49.6683 14.8005h-2.9207v1.9776h3.4277v1.222h-4.9489v-7.3828h4.9388v1.2321h-3.4176v1.7595h2.9207z"/><path d="m53.7957 16.1696 1.6734-5.5523h1.6935l-2.5708 7.3828h-1.5871l-2.5606-7.3828h1.6885z"/><path d="m59.4799 18.0001h-1.5212v-7.3828h1.5212z"/><path d="m65.3365 14.8005h-2.9207v1.9776h3.4277v1.222h-4.9489v-7.3828h4.9388v1.2321h-3.4176v1.7595h2.9207z"/><path d="m72.486 15.8704.9939-5.2531h1.5161l-1.6378 7.3828h-1.5314l-1.2017-4.9388-1.2017 4.9388h-1.5313l-1.6379-7.3828h1.5162l.9989 5.243 1.2169-5.243h1.288z"/></g><path d="m44.9968 50.5306 11.8854-6.8623-11.1992-6.4661c-.2086-.1205-.4453-.1839-.6862-.1839-.241 0-.4776.0634-.6863.1839l-11.1992 6.4661z" fill="#f3f6f8"/><path d="m43.3499 53.1699-11.9446-6.8965v12.9966c-.0002.2422.0635.4803.1845.6901.1211.2099.2953.3841.5051.5052l11.255 6.4974z" fill="#f3f6f8"/><path d="m46.6436 53.1703v13.7929l11.2549-6.4983c.2098-.1211.384-.2954.5051-.5052.121-.2099.1847-.4479.1845-.6902v-12.9956z" fill="#f3f6f8"/><g fill="#d0d7dd"><path d="m24.2178 41.131-.3746-.2163c-.3102-.1794-.707-.0728-.886.2375-.1792.3105-.0728.7075.2374.8866l.3746.2163c.1022.0591.2136.0871.3237.0871.2241 0 .4422-.1165.5623-.3246.1792-.3105.0728-.7075-.2374-.8866z"/><path d="m27.2893 42.905-.7679-.4435c-.3102-.1795-.707-.0729-.8861.2376-.1791.3104-.0728.7074.2376.8865l.7679.4435c.1022.0591.2137.0871.3238.0871.2241 0 .4422-.1165.5624-.3247.1789-.3104.0726-.7074-.2377-.8865z"/><path d="m51.8636 57.0971-.768-.4435c-.3103-.1795-.707-.0729-.886.2376-.1792.3104-.0728.7074.2375.8865l.7679.4435c.1022.0591.2136.0871.3237.0871.2241 0 .4422-.1165.5624-.3247.1791-.3104.0728-.7074-.2375-.8865z"/><path d="m58.0068 60.6452-.7679-.4436c-.3103-.1794-.7071-.0728-.8862.2377-.1791.3104-.0728.7073.2376.8865l.7679.4435c.1021.0591.2137.087.3237.087.2242 0 .4422-.1164.5624-.3247.1792-.3104.0728-.7073-.2375-.8864z"/><path d="m54.9351 58.8711-.7679-.4435c-.3104-.1795-.707-.073-.8862.2376-.1791.3104-.0728.7074.2376.8865l.7679.4435c.1022.0591.2137.0871.3237.0871.2242 0 .4422-.1165.5625-.3247.1791-.3104.0727-.7074-.2376-.8865z"/><path d="m48.7917 55.323-.7679-.4435c-.3103-.1795-.707-.0728-.8862.2377-.1791.3104-.0728.7073.2376.8865l.7679.4435c.1021.0591.2137.087.3237.087.2242 0 .4423-.1165.5625-.3247.1791-.3104.0727-.7073-.2376-.8865z"/><path d="m64.1502 64.1932-.768-.4435c-.3103-.1795-.7069-.0729-.8861.2376-.1791.3105-.0728.7074.2375.8865l.768.4436c.1022.0591.2136.087.3237.087.2242 0 .4422-.1165.5624-.3247.1792-.3104.0728-.7073-.2375-.8865z"/><path d="m66.8286 65.7401-.3745-.2164c-.3104-.1794-.707-.0728-.8861.2376-.1791.3105-.0728.7074.2375.8866l.3745.2163c.1021.0591.2137.0871.3237.0871.2242 0 .4423-.1165.5624-.3246.1791-.3105.0728-.7075-.2375-.8866z"/><path d="m24.2175 57.9-.3746-.2163c-.3103-.1792-.7069-.0727-.886.2378s-.0727.7074.2376.8865l.3745.2163c.1021.059.2136.087.3237.087.2242 0 .4423-.1165.5624-.3247.1791-.3104.0727-.7074-.2376-.8866z"/><path d="m48.1234 71.7061-.7471-.4314c-.3102-.1792-.707-.0728-.8861.2377s-.0727.7074.2376.8866l.7471.4314c.1022.059.2135.087.3236.087.2241 0 .4423-.1165.5624-.3247.1791-.3105.0727-.7074-.2375-.8866z"/><path d="m51.1111 73.4319-.747-.4314c-.3101-.1792-.707-.0728-.8861.2377-.1791.3104-.0727.7074.2376.8866l.747.4314c.1021.059.2136.0869.3236.0869.2242 0 .4422-.1164.5624-.3247.1792-.3104.0728-.7073-.2375-.8865z"/><path d="m27.2055 59.6258-.747-.4314c-.3101-.1791-.707-.0728-.886.2377-.1792.3104-.0728.7073.2375.8866l.747.4314c.1021.059.2136.087.3237.087.2241 0 .4422-.1165.5624-.3247.1791-.3104.0728-.7074-.2376-.8866z"/><path d="m53.7274 74.9427-.3746-.2164c-.3102-.1792-.707-.0729-.886.2376-.1792.3104-.0729.7074.2374.8866l.3746.2163c.1021.059.2136.0871.3237.0871.2241 0 .4422-.1164.5623-.3246.1792-.3104.0729-.7074-.2374-.8866z"/><path d="m67.0661 41.1522c-.1791-.3105-.576-.4166-.8861-.2376l-.3745.2164c-.3103.1791-.4166.576-.2375.8865.1201.2083.3382.3247.5623.3247.1101 0 .2217-.0281.3238-.0871l.3745-.2164c.3102-.1791.4166-.576.2375-.8865z"/><path d="m36.7418 58.6653c-.1791-.3106-.5758-.4169-.886-.2376l-.768.4435c-.3102.1791-.4166.5761-.2375.8865.12.2083.3381.3247.5623.3247.11 0 .2215-.0281.3238-.0871l.7679-.4435c.3102-.1791.4166-.5761.2375-.8865z"/><path d="m33.6701 60.4393c-.1791-.3105-.5758-.4169-.886-.2376l-.768.4435c-.3102.1792-.4166.5761-.2375.8865.12.2083.3381.3247.5623.3247.11 0 .2215-.028.3238-.087l.7679-.4436c.3102-.1791.4166-.576.2375-.8865z"/><path d="m27.5269 63.9873c-.1791-.3106-.5758-.4168-.8861-.2376l-.768.4435c-.3102.1791-.4166.5761-.2375.8865.1201.2083.3382.3247.5624.3247.1101 0 .2215-.0281.3237-.0871l.768-.4435c.3102-.1791.4166-.5761.2375-.8865z"/><path d="m64.3882 42.6992c-.1793-.3106-.5759-.4168-.8862-.2376l-.7679.4435c-.3103.1791-.4166.5761-.2376.8865.1202.2083.3382.3247.5624.3247.11 0 .2216-.028.3238-.0871l.7679-.4435c.3103-.1791.4166-.5761.2376-.8865z"/><path d="m39.8142 56.8913c-.1791-.3105-.5758-.4169-.8861-.2376l-.7679.4435c-.3102.1791-.4166.5761-.2376.8865.1201.2083.3382.3247.5624.3247.11 0 .2215-.0281.3237-.0871l.768-.4435c.3102-.1791.4165-.5761.2375-.8865z"/><path d="m42.8859 55.1172c-.1791-.3105-.5758-.4169-.8861-.2376l-.7679.4435c-.3103.1792-.4166.5761-.2376.8865.1201.2084.3381.3247.5624.3247.11 0 .2215-.028.3237-.0871l.7679-.4435c.3103-.1791.4166-.576.2376-.8865z"/><path d="m24.4549 65.7612c-.1791-.3105-.576-.4167-.8861-.2375l-.3745.2163c-.3102.1792-.4166.5761-.2374.8866.1201.2082.3381.3246.5623.3246.1101 0 .2216-.028.3237-.087l.3746-.2164c.3102-.1791.4165-.5761.2374-.8866z"/><path d="m67.0665 57.9215c-.1791-.3105-.576-.417-.8861-.2378l-.3745.2163c-.3103.1791-.4167.5761-.2376.8866.1201.2083.3382.3247.5624.3247.11 0 .2215-.028.3236-.087l.3746-.2163c.3103-.1791.4165-.576.2376-.8865z"/><path d="m40.5448 73.2381c-.1791-.3106-.5759-.4168-.8861-.2378l-.747.4314c-.3103.1792-.4166.5762-.2375.8866.1201.2083.3382.3247.5624.3247.11 0 .2215-.028.3237-.087l.747-.4314c.3103-.1792.4166-.5761.2375-.8865z"/><path d="m61.0787 62.4192-.2513-.1451.3975-.2296c.3102-.1792.4166-.5761.2375-.8866s-.5759-.417-.8861-.2377l-.6456.3729v-1.7546c0-.3585-.2905-.649-.6487-.649-.3583 0-.6487.2905-.6487.649v2.5038l-1.0447.6034c.0001-.0001-.0002 0 0 0l-.7474.4316c.0001-.0001-.0001.0001 0 0l-11.1816 6.4572v-.3038c0-.3585-.2904-.649-.6487-.649-.3582 0-.6486.2905-.6486.649v.3038l-12.973-7.4922v-10.8403c0-.3585-.2904-.649-.6487-.649s-.6487.2905-.6487.649v10.0906l-.6451-.3725c-.3103-.1792-.707-.0728-.8861.2377s-.0727.7074.2376.8866l.3974.2296-.2513.1451c-.3102.1791-.4166.5761-.2375.8865.1201.2083.3382.3247.5624.3247.1101 0 .2215-.028.3237-.0871l.768-.4435c.0425-.0245.081-.0536.1157-.0856l14.2101 8.2065c-.0005-.0003.0004.0002 0 0 .0186.0107.0395.0203.0591.029.0066.003.0128.0067.0194.0094.0172.007.0349.0123.0527.0178.0092.0029.0182.0067.0276.0092.0181.0047.0367.0076.0552.0108.009.0016.0179.0041.0269.0053.0278.0036.0559.0054.084.0054.0828 0 .1665-.016.2463-.0489.0148-.006.0289-.0141.0434-.0212.0113-.0058.0228-.0103.034-.0167l.1988-.1149c.0009-.0005.0018-.0008.0026-.0013l.747-.4314c.001-.0006.0019-.0014.003-.0019l2.2364-1.2916c.0006-.0002.0012-.0005.0017-.0008l.7471-.4315c-.0004.0003.0004-.0003 0 0l2.24-1.2937c-.0004.0003.0004-.0001 0 0l.7482-.4321c-.0001 0 .0001 0 0 0l2.2405-1.2938c-.0002.0001.0001-.0001 0 0l.7476-.4316c-.0003.0001.0004-.0002 0 0l4.2979-2.4821c.0348.0321.0732.0612.1159.0858l.7679.4435c.1022.0591.2137.0871.3237.0871.2242 0 .4422-.1165.5624-.3247.1793-.3104.0729-.7074-.2374-.8865z"/><path d="m43.5334 71.5123c-.1791-.3103-.576-.4169-.8861-.2377l-.7471.4314c-.3102.1792-.4167.5761-.2375.8866.1201.2082.3382.3247.5624.3247.11 0 .2215-.028.3236-.087l.7471-.4314c.3103-.1792.4167-.5761.2376-.8866z"/><path d="m64.4509 59.432c-.1791-.3106-.5758-.4167-.8861-.2377l-.747.4314c-.3103.1792-.4166.5761-.2375.8865.1201.2083.3382.3247.5624.3247.11 0 .2215-.028.3237-.0869l.747-.4314c.3102-.1793.4166-.5762.2375-.8866z"/><path d="m37.5568 74.9638c-.179-.3104-.5759-.4167-.8861-.2376l-.3745.2164c-.3102.1792-.4166.5761-.2375.8866.1202.2082.3382.3246.5624.3246.1101 0 .2216-.0281.3237-.0871l.3746-.2163c.3102-.1793.4165-.5762.2374-.8866z"/><path d="m66.8303 49.2855-.3739-.2175c-.3097-.1799-.7068-.0745-.8868.2353-.18.3099-.0748.7071.235.8872l.374.2174c.1025.0596.2146.0879.3253.0879.2235 0 .4411-.1157.5614-.323.18-.3099.0748-.7072-.235-.8873z"/><path d="m43.3304 35.6218-.746-.4339c-.3097-.18-.7068-.0748-.8868.2351-.1802.3098-.0749.7071.2348.8872l.746.4338c.1026.0596.2147.088.3254.088.2235 0 .441-.1157.5615-.323.18-.3099.0748-.7072-.2349-.8872z"/><path d="m40.3465 33.8867-.746-.4338c-.3097-.1801-.7068-.0749-.8868.235s-.0749.7071.2348.8872l.746.4338c.1026.0596.2147.088.3254.088.2235 0 .441-.1157.5615-.3229.18-.3099.0748-.7072-.2349-.8873z"/><path d="m64.2186 47.7668-.746-.4338c-.3096-.18-.7068-.0748-.8868.2351s-.0748.7072.2349.8872l.746.4339c.1025.0596.2147.088.3254.088.2235 0 .441-.1157.5614-.323.18-.31.0749-.7073-.2349-.8874z"/><path d="m61.2345 46.0319-.6577-.3823.5019-.2898c.3102-.1791.4166-.5761.2375-.8865-.1792-.3107-.5759-.4169-.8861-.2376l-.768.4435c-.1192.0688-.208.1699-.2624.2859l-14.0624-8.1846c-.0019-.0012-.004-.0018-.0059-.003-.023-.013-.0467-.0251-.0713-.0354-.0009-.0003-.0018-.0006-.0027-.0009-.0229-.0094-.0466-.0172-.0706-.024-.0065-.0018-.013-.0034-.0195-.005-.0191-.0048-.0386-.0086-.0583-.0116-.0069-.001-.0137-.0023-.0205-.0031-.025-.003-.0501-.0049-.0758-.0049-.001 0-.0019 0-.0029 0-.0257 0-.051.0019-.0759.0049-.0068.0008-.0136.0021-.0204.0031-.0199.003-.0394.0068-.0587.0116-.0064.0016-.0128.0031-.0191.0049-.0246.007-.0487.0148-.072.0245.0004-.0002-.0004.0002 0 0-.0249.0104-.0502.023-.0734.0363-.0017.001-.0036.0016-.0054.0027l-14.0614 8.1844c-.0543-.1159-.1431-.217-.2624-.2859l-.7679-.4435c-.3103-.1795-.707-.0729-.8861.2376-.1791.3104-.0728.7074.2376.8865l.5002.2889-.6614.3832c-.3099.1796-.4157.5767-.2362.8869.1203.2078.3381.3238.5619.3238.1103 0 .2221-.0281.3245-.0875l.6583-.3814v1.6735c0 .3586.2904.6491.6487.6491s.6487-.2905.6487-.6491v-1.6755l12.5936 7.2732c-.0136.1312.0119.2678.0828.3909.0709.1228.1763.2128.2966.2667v11.6942c0 .3586.2904.6491.6487.6491s.6487-.2905.6487-.6491v-11.6938c.1207-.0538.2266-.1439.2977-.2672s.0966-.26.0828-.3914l12.5915-7.2713c.0016-.001-.0001 0 .0016-.001v9.9541c0 .3585.2904.649.6486.649.3583 0 .6487-.2905.6487-.649v-9.9509l.652.3791c.1026.0596.2146.088.3253.088.2235 0 .4411-.1157.5615-.3231.18-.3099.0747-.7071-.235-.8872zm-16.2232 7.1079-12.9766-7.4942 12.3842-7.1745c.1012.2267.328.3849.5922.3849.2723 0 .5051-.168.6013-.4061l.0503.0292c.0266.0155.0538.0287.0815.0399l2.0905 1.2167c.021.0159.0428.0311.0662.0447l.7459.4337c.0217.0127.0439.0231.0663.0329l2.113 1.2297c.0187.0138.0382.0268.0587.0387l.7461.4338c.0155.009.0316.016.0475.0236l2.149 1.2507c.0135.0093.0271.0186.0415.027l.7461.4337c.0089.0052.0183.0089.0274.0136l2.1938 1.2768c.0057.0036.0109.0075.0167.0109l.746.4338c.0029.0018.006.0028.009.0045l.3807.2217z"/><path d="m37.3627 32.1518-.3739-.2175c-.3096-.1802-.7068-.0748-.8868.235-.1801.3099-.075.7072.2348.8872l.374.2175c.1025.0596.2147.088.3253.088.2236 0 .441-.1157.5615-.3229.18-.3099.0749-.7072-.2349-.8873z"/><path d="m24.43 49.3045c-.1797-.3102-.5764-.416-.8864-.2363l-.3742.2168c-.3101.1797-.4157.5768-.2363.887.1203.2078.3381.3238.5619.3238.1104 0 .2222-.0281.3245-.0875l.3742-.2169c.3101-.1796.4158-.5767.2363-.8869z"/><path d="m51.3774 33.6883c-.1796-.3102-.5764-.416-.8864-.2363l-.7486.4337c-.31.1796-.4158.5767-.2362.8869.1203.2078.3381.3238.562.3238.1103 0 .2221-.0281.3244-.0874l.7486-.4338c.3099-.1795.4158-.5767.2362-.8869z"/><path d="m48.3833 35.4234c-.1796-.3102-.5766-.416-.8865-.2363l-.7485.4338c-.31.1796-.4157.5768-.2363.8869.1202.2078.3381.3238.5619.3238.1104 0 .2222-.0281.3246-.0874l.7485-.4339c.31-.1796.4157-.5767.2363-.8869z"/><path d="m27.4246 47.5694c-.1795-.3103-.5764-.416-.8864-.2364l-.7485.4339c-.3101.1796-.4158.5767-.2363.8869.1202.2079.338.3238.5619.3238.1103 0 .2221-.0281.3245-.0875l.7486-.4338c.31-.1796.4157-.5768.2362-.8869z"/><path d="m53.9973 32.1699c-.1796-.3102-.5765-.4158-.8864-.2362l-.3742.217c-.31.1796-.4157.5768-.2361.8869.1202.2077.338.3238.5618.3238.1104 0 .2223-.0282.3246-.0876l.3742-.217c.31-.1796.4158-.5767.2361-.8869z"/><path d="m45.011 50.5385c-.3583 0-.6487.2905-.6487.649v.8654c0 .3585.2904.649.6487.649s.6487-.2905.6487-.649v-.8654c0-.3584-.2904-.649-.6487-.649z"/><path d="m45.011 40.154c-.3583 0-.6487.2905-.6487.649v.8654c0 .3585.2904.649.6487.649s.6487-.2905.6487-.649v-.8654c0-.3585-.2904-.649-.6487-.649z"/><path d="m45.011 43.6155c-.3583 0-.6487.2905-.6487.6491v.8653c0 .3586.2904.6491.6487.6491s.6487-.2905.6487-.6491v-.8653c0-.3586-.2904-.6491-.6487-.6491z"/><path d="m45.011 47.077c-.3583 0-.6487.2906-.6487.6491v.8654c0 .3585.2904.649.6487.649s.6487-.2905.6487-.649v-.8654c0-.3585-.2904-.6491-.6487-.6491z"/></g></svg>